<svg xmlns="http://www.w3.org/2000/svg" xmlns:xlink="http://www.w3.org/1999/xlink" width="500" zoomAndPan="magnify" viewBox="0 0 375 374.999991" height="500" preserveAspectRatio="xMidYMid meet" version="1.0"><path fill="#f4900c" d="M 375 187.5 C 375 190.570312 374.925781 193.636719 374.773438 196.699219 C 374.625 199.765625 374.398438 202.824219 374.097656 205.878906 C 373.796875 208.933594 373.421875 211.976562 372.96875 215.011719 C 372.519531 218.046875 371.996094 221.070312 371.398438 224.078125 C 370.796875 227.089844 370.125 230.082031 369.378906 233.058594 C 368.636719 236.035156 367.816406 238.992188 366.925781 241.929688 C 366.035156 244.863281 365.074219 247.777344 364.039062 250.667969 C 363.003906 253.554688 361.902344 256.417969 360.726562 259.253906 C 359.554688 262.089844 358.308594 264.890625 356.996094 267.667969 C 355.6875 270.441406 354.308594 273.179688 352.859375 275.886719 C 351.414062 278.59375 349.902344 281.261719 348.324219 283.894531 C 346.746094 286.527344 345.105469 289.117188 343.402344 291.667969 C 341.695312 294.222656 339.929688 296.730469 338.101562 299.195312 C 336.273438 301.660156 334.386719 304.078125 332.4375 306.449219 C 330.492188 308.820312 328.488281 311.144531 326.429688 313.417969 C 324.367188 315.691406 322.253906 317.914062 320.082031 320.082031 C 317.914062 322.253906 315.691406 324.367188 313.417969 326.429688 C 311.144531 328.488281 308.820312 330.492188 306.449219 332.4375 C 304.078125 334.386719 301.660156 336.273438 299.195312 338.101562 C 296.730469 339.929688 294.222656 341.695312 291.667969 343.402344 C 289.117188 345.105469 286.527344 346.746094 283.894531 348.324219 C 281.261719 349.902344 278.59375 351.414062 275.886719 352.859375 C 273.179688 354.308594 270.441406 355.6875 267.667969 356.996094 C 264.890625 358.308594 262.089844 359.554688 259.253906 360.726562 C 256.417969 361.902344 253.554688 363.003906 250.667969 364.039062 C 247.777344 365.074219 244.863281 366.035156 241.929688 366.925781 C 238.992188 367.816406 236.035156 368.636719 233.058594 369.378906 C 230.082031 370.125 227.089844 370.796875 224.078125 371.398438 C 221.070312 371.996094 218.046875 372.519531 215.011719 372.96875 C 211.976562 373.421875 208.933594 373.796875 205.878906 374.097656 C 202.824219 374.398438 199.765625 374.625 196.699219 374.773438 C 193.636719 374.925781 190.570312 375 187.5 375 C 184.429688 375 181.363281 374.925781 178.300781 374.773438 C 175.234375 374.625 172.175781 374.398438 169.121094 374.097656 C 166.066406 373.796875 163.023438 373.421875 159.988281 372.96875 C 156.953125 372.519531 153.929688 371.996094 150.921875 371.398438 C 147.910156 370.796875 144.917969 370.125 141.941406 369.378906 C 138.964844 368.636719 136.007812 367.816406 133.070312 366.925781 C 130.136719 366.035156 127.222656 365.074219 124.332031 364.039062 C 121.445312 363.003906 118.582031 361.902344 115.746094 360.726562 C 112.910156 359.554688 110.105469 358.308594 107.332031 356.996094 C 104.558594 355.6875 101.820312 354.308594 99.113281 352.859375 C 96.40625 351.414062 93.738281 349.902344 91.105469 348.324219 C 88.472656 346.746094 85.882812 345.105469 83.332031 343.402344 C 80.777344 341.695312 78.269531 339.929688 75.804688 338.101562 C 73.339844 336.273438 70.921875 334.386719 68.550781 332.4375 C 66.179688 330.492188 63.855469 328.488281 61.582031 326.429688 C 59.308594 324.367188 57.085938 322.253906 54.917969 320.082031 C 52.746094 317.914062 50.632812 315.691406 48.570312 313.417969 C 46.511719 311.144531 44.507812 308.820312 42.558594 306.449219 C 40.613281 304.078125 38.726562 301.660156 36.898438 299.195312 C 35.070312 296.730469 33.304688 294.222656 31.597656 291.667969 C 29.894531 289.117188 28.253906 286.527344 26.675781 283.894531 C 25.097656 281.261719 23.585938 278.59375 22.140625 275.886719 C 20.691406 273.179688 19.3125 270.441406 18.003906 267.667969 C 16.691406 264.890625 15.445312 262.089844 14.273438 259.253906 C 13.097656 256.417969 11.996094 253.554688 10.960938 250.667969 C 9.925781 247.777344 8.964844 244.863281 8.074219 241.929688 C 7.183594 238.992188 6.363281 236.035156 5.621094 233.058594 C 4.875 230.082031 4.203125 227.089844 3.601562 224.078125 C 3.003906 221.070312 2.480469 218.046875 2.03125 215.011719 C 1.578125 211.976562 1.203125 208.933594 0.902344 205.878906 C 0.601562 202.824219 0.375 199.765625 0.226562 196.699219 C 0.0742188 193.636719 0 190.570312 0 187.5 C 0 184.429688 0.0742188 181.363281 0.226562 178.300781 C 0.375 175.234375 0.601562 172.175781 0.902344 169.121094 C 1.203125 166.066406 1.578125 163.023438 2.03125 159.988281 C 2.480469 156.953125 3.003906 153.929688 3.601562 150.921875 C 4.203125 147.910156 4.875 144.917969 5.621094 141.941406 C 6.363281 138.964844 7.183594 136.007812 8.074219 133.070312 C 8.964844 130.136719 9.925781 127.222656 10.960938 124.332031 C 11.996094 121.445312 13.097656 118.582031 14.273438 115.746094 C 15.445312 112.910156 16.691406 110.105469 18.003906 107.332031 C 19.3125 104.558594 20.691406 101.820312 22.140625 99.113281 C 23.585938 96.40625 25.097656 93.738281 26.675781 91.105469 C 28.253906 88.472656 29.894531 85.882812 31.597656 83.332031 C 33.304688 80.777344 35.070312 78.269531 36.898438 75.804688 C 38.726562 73.339844 40.613281 70.921875 42.558594 68.550781 C 44.507812 66.179688 46.511719 63.855469 48.570312 61.582031 C 50.632812 59.308594 52.746094 57.085938 54.917969 54.917969 C 57.085938 52.746094 59.308594 50.632812 61.582031 48.570312 C 63.855469 46.511719 66.179688 44.507812 68.550781 42.558594 C 70.921875 40.613281 73.339844 38.726562 75.804688 36.898438 C 78.269531 35.070312 80.777344 33.304688 83.332031 31.597656 C 85.882812 29.894531 88.472656 28.253906 91.105469 26.675781 C 93.738281 25.097656 96.40625 23.585938 99.113281 22.140625 C 101.820312 20.691406 104.558594 19.3125 107.332031 18.003906 C 110.105469 16.691406 112.910156 15.445312 115.746094 14.273438 C 118.582031 13.097656 121.445312 11.996094 124.332031 10.960938 C 127.222656 9.925781 130.136719 8.964844 133.070312 8.074219 C 136.007812 7.183594 138.964844 6.363281 141.941406 5.617188 C 144.917969 4.875 147.910156 4.203125 150.921875 3.601562 C 153.929688 3.003906 156.953125 2.480469 159.988281 2.03125 C 163.023438 1.578125 166.066406 1.203125 169.121094 0.902344 C 172.175781 0.601562 175.234375 0.375 178.300781 0.226562 C 181.363281 0.0742188 184.429688 0 187.5 0 C 190.570312 0 193.636719 0.0742188 196.699219 0.226562 C 199.765625 0.375 202.824219 0.601562 205.878906 0.902344 C 208.933594 1.203125 211.976562 1.578125 215.011719 2.03125 C 218.046875 2.480469 221.070312 3.003906 224.078125 3.601562 C 227.089844 4.203125 230.082031 4.875 233.058594 5.617188 C 236.035156 6.363281 238.992188 7.183594 241.929688 8.074219 C 244.863281 8.964844 247.777344 9.925781 250.667969 10.960938 C 253.554688 11.996094 256.417969 13.097656 259.253906 14.273438 C 262.089844 15.445312 264.890625 16.691406 267.667969 18.003906 C 270.441406 19.3125 273.179688 20.691406 275.886719 22.140625 C 278.59375 23.585938 281.261719 25.097656 283.894531 26.675781 C 286.527344 28.253906 289.117188 29.894531 291.667969 31.597656 C 294.222656 33.304688 296.730469 35.070312 299.195312 36.898438 C 301.660156 38.726562 304.078125 40.613281 306.449219 42.558594 C 308.820312 44.507812 311.144531 46.511719 313.417969 48.570312 C 315.691406 50.632812 317.914062 52.746094 320.082031 54.917969 C 322.253906 57.085938 324.367188 59.308594 326.429688 61.582031 C 328.488281 63.855469 330.492188 66.179688 332.4375 68.550781 C 334.386719 70.921875 336.273438 73.339844 338.101562 75.804688 C 339.929688 78.269531 341.695312 80.777344 343.402344 83.332031 C 345.105469 85.882812 346.746094 88.472656 348.324219 91.105469 C 349.902344 93.738281 351.414062 96.40625 352.859375 99.113281 C 354.308594 101.820312 355.6875 104.558594 356.996094 107.332031 C 358.308594 110.105469 359.554688 112.910156 360.726562 115.746094 C 361.902344 118.582031 363.003906 121.445312 364.039062 124.332031 C 365.074219 127.222656 366.035156 130.136719 366.925781 133.070312 C 367.816406 136.007812 368.636719 138.964844 369.378906 141.941406 C 370.125 144.917969 370.796875 147.910156 371.398438 150.921875 C 371.996094 153.929688 372.519531 156.953125 372.96875 159.988281 C 373.421875 163.023438 373.796875 166.066406 374.097656 169.121094 C 374.398438 172.175781 374.625 175.234375 374.773438 178.300781 C 374.925781 181.363281 375 184.429688 375 187.5 Z M 375 187.5 " fill-opacity="1" fill-rule="nonzero"/><path fill="#ffd983" d="M 338.542969 187.5 C 338.542969 189.972656 338.480469 192.441406 338.359375 194.910156 C 338.238281 197.378906 338.054688 199.84375 337.8125 202.304688 C 337.570312 204.765625 337.269531 207.21875 336.90625 209.664062 C 336.542969 212.109375 336.121094 214.542969 335.640625 216.964844 C 335.15625 219.390625 334.617188 221.800781 334.015625 224.199219 C 333.414062 226.597656 332.753906 228.980469 332.039062 231.34375 C 331.320312 233.710938 330.546875 236.058594 329.710938 238.382812 C 328.878906 240.710938 327.988281 243.015625 327.042969 245.300781 C 326.097656 247.585938 325.097656 249.84375 324.039062 252.078125 C 322.984375 254.3125 321.871094 256.519531 320.707031 258.699219 C 319.542969 260.878906 318.324219 263.03125 317.054688 265.152344 C 315.78125 267.269531 314.460938 269.359375 313.085938 271.414062 C 311.714844 273.46875 310.289062 275.488281 308.816406 277.476562 C 307.34375 279.460938 305.824219 281.410156 304.257812 283.320312 C 302.6875 285.230469 301.074219 287.101562 299.414062 288.933594 C 297.753906 290.765625 296.050781 292.554688 294.300781 294.300781 C 292.554688 296.050781 290.765625 297.753906 288.933594 299.414062 C 287.101562 301.074219 285.230469 302.6875 283.320312 304.257812 C 281.410156 305.824219 279.460938 307.34375 277.476562 308.816406 C 275.488281 310.289062 273.46875 311.714844 271.414062 313.085938 C 269.359375 314.460938 267.269531 315.78125 265.152344 317.054688 C 263.03125 318.324219 260.878906 319.542969 258.699219 320.707031 C 256.519531 321.871094 254.3125 322.984375 252.078125 324.039062 C 249.84375 325.097656 247.585938 326.097656 245.300781 327.042969 C 243.015625 327.988281 240.710938 328.878906 238.382812 329.710938 C 236.058594 330.546875 233.710938 331.320312 231.34375 332.039062 C 228.980469 332.753906 226.597656 333.414062 224.199219 334.015625 C 221.800781 334.617188 219.390625 335.15625 216.964844 335.640625 C 214.542969 336.121094 212.109375 336.542969 209.664062 336.90625 C 207.21875 337.269531 204.765625 337.570312 202.304688 337.8125 C 199.84375 338.054688 197.378906 338.238281 194.910156 338.359375 C 192.441406 338.480469 189.972656 338.542969 187.5 338.542969 C 185.027344 338.542969 182.558594 338.480469 180.089844 338.359375 C 177.621094 338.238281 175.15625 338.054688 172.695312 337.8125 C 170.234375 337.570312 167.78125 337.269531 165.335938 336.90625 C 162.890625 336.542969 160.457031 336.121094 158.035156 335.640625 C 155.609375 335.15625 153.199219 334.617188 150.800781 334.015625 C 148.402344 333.414062 146.019531 332.753906 143.65625 332.039062 C 141.289062 331.320312 138.941406 330.546875 136.617188 329.710938 C 134.289062 328.878906 131.984375 327.988281 129.699219 327.042969 C 127.414062 326.097656 125.15625 325.097656 122.921875 324.039062 C 120.6875 322.984375 118.480469 321.871094 116.300781 320.707031 C 114.121094 319.542969 111.96875 318.324219 109.847656 317.054688 C 107.730469 315.78125 105.640625 314.460938 103.585938 313.085938 C 101.53125 311.714844 99.511719 310.289062 97.523438 308.816406 C 95.539062 307.34375 93.589844 305.824219 91.679688 304.257812 C 89.769531 302.6875 87.898438 301.074219 86.066406 299.414062 C 84.234375 297.753906 82.445312 296.050781 80.699219 294.300781 C 78.949219 292.554688 77.246094 290.765625 75.585938 288.933594 C 73.925781 287.101562 72.3125 285.230469 70.742188 283.320312 C 69.175781 281.410156 67.65625 279.460938 66.183594 277.476562 C 64.710938 275.488281 63.285156 273.46875 61.914062 271.414062 C 60.539062 269.359375 59.21875 267.269531 57.945312 265.152344 C 56.675781 263.03125 55.457031 260.878906 54.292969 258.699219 C 53.128906 256.519531 52.015625 254.3125 50.960938 252.078125 C 49.902344 249.84375 48.902344 247.585938 47.957031 245.300781 C 47.007812 243.015625 46.121094 240.710938 45.289062 238.382812 C 44.453125 236.058594 43.679688 233.710938 42.960938 231.34375 C 42.246094 228.980469 41.585938 226.597656 40.984375 224.199219 C 40.382812 221.800781 39.84375 219.390625 39.359375 216.964844 C 38.878906 214.542969 38.457031 212.109375 38.09375 209.664062 C 37.730469 207.21875 37.429688 204.765625 37.1875 202.304688 C 36.941406 199.84375 36.761719 197.378906 36.640625 194.910156 C 36.519531 192.441406 36.457031 189.972656 36.457031 187.5 C 36.457031 185.027344 36.519531 182.558594 36.640625 180.089844 C 36.761719 177.621094 36.941406 175.15625 37.1875 172.695312 C 37.429688 170.234375 37.730469 167.78125 38.09375 165.335938 C 38.457031 162.890625 38.878906 160.457031 39.359375 158.035156 C 39.84375 155.609375 40.382812 153.199219 40.984375 150.800781 C 41.585938 148.402344 42.246094 146.019531 42.960938 143.65625 C 43.679688 141.289062 44.453125 138.941406 45.289062 136.617188 C 46.121094 134.289062 47.007812 131.984375 47.957031 129.699219 C 48.902344 127.414062 49.902344 125.15625 50.960938 122.921875 C 52.015625 120.6875 53.128906 118.480469 54.292969 116.300781 C 55.457031 114.121094 56.675781 111.96875 57.945312 109.847656 C 59.21875 107.730469 60.539062 105.640625 61.914062 103.585938 C 63.285156 101.53125 64.710938 99.511719 66.183594 97.523438 C 67.65625 95.539062 69.175781 93.589844 70.742188 91.679688 C 72.3125 89.769531 73.925781 87.898438 75.585938 86.066406 C 77.246094 84.234375 78.949219 82.445312 80.699219 80.699219 C 82.445312 78.949219 84.234375 77.246094 86.066406 75.585938 C 87.898438 73.925781 89.769531 72.3125 91.679688 70.742188 C 93.589844 69.175781 95.539062 67.65625 97.523438 66.183594 C 99.511719 64.710938 101.53125 63.285156 103.585938 61.914062 C 105.640625 60.539062 107.730469 59.21875 109.847656 57.945312 C 111.96875 56.675781 114.121094 55.457031 116.300781 54.292969 C 118.480469 53.128906 120.6875 52.015625 122.921875 50.960938 C 125.15625 49.902344 127.414062 48.902344 129.699219 47.957031 C 131.984375 47.007812 134.289062 46.121094 136.617188 45.289062 C 138.941406 44.453125 141.289062 43.679688 143.65625 42.960938 C 146.019531 42.246094 148.402344 41.585938 150.800781 40.984375 C 153.199219 40.382812 155.609375 39.84375 158.035156 39.359375 C 160.457031 38.878906 162.890625 38.457031 165.335938 38.09375 C 167.78125 37.730469 170.234375 37.429688 172.695312 37.1875 C 175.15625 36.941406 177.621094 36.761719 180.089844 36.640625 C 182.558594 36.519531 185.027344 36.457031 187.5 36.457031 C 189.972656 36.457031 192.441406 36.519531 194.910156 36.640625 C 197.378906 36.761719 199.84375 36.941406 202.304688 37.1875 C 204.765625 37.429688 207.21875 37.730469 209.664062 38.09375 C 212.109375 38.457031 214.542969 38.878906 216.964844 39.359375 C 219.390625 39.84375 221.800781 40.382812 224.199219 40.984375 C 226.597656 41.585938 228.980469 42.246094 231.34375 42.960938 C 233.710938 43.679688 236.058594 44.453125 238.382812 45.289062 C 240.710938 46.121094 243.015625 47.007812 245.300781 47.957031 C 247.585938 48.902344 249.84375 49.902344 252.078125 50.960938 C 254.3125 52.015625 256.519531 53.128906 258.699219 54.292969 C 260.878906 55.457031 263.03125 56.675781 265.152344 57.945312 C 267.269531 59.21875 269.359375 60.539062 271.414062 61.914062 C 273.46875 63.285156 275.488281 64.710938 277.476562 66.183594 C 279.460938 67.65625 281.410156 69.175781 283.320312 70.742188 C 285.230469 72.3125 287.101562 73.925781 288.933594 75.585938 C 290.765625 77.246094 292.554688 78.949219 294.300781 80.699219 C 296.050781 82.445312 297.753906 84.234375 299.414062 86.066406 C 301.074219 87.898438 302.6875 89.769531 304.257812 91.679688 C 305.824219 93.589844 307.34375 95.539062 308.816406 97.523438 C 310.289062 99.511719 311.714844 101.53125 313.085938 103.585938 C 314.460938 105.640625 315.78125 107.730469 317.054688 109.847656 C 318.324219 111.96875 319.542969 114.121094 320.707031 116.300781 C 321.871094 118.480469 322.984375 120.6875 324.039062 122.921875 C 325.097656 125.15625 326.097656 127.414062 327.042969 129.699219 C 327.988281 131.984375 328.878906 134.289062 329.710938 136.617188 C 330.546875 138.941406 331.320312 141.289062 332.039062 143.65625 C 332.753906 146.019531 333.414062 148.402344 334.015625 150.800781 C 334.617188 153.199219 335.15625 155.609375 335.640625 158.035156 C 336.121094 160.457031 336.542969 162.890625 336.90625 165.335938 C 337.269531 167.78125 337.570312 170.234375 337.8125 172.695312 C 338.054688 175.15625 338.238281 177.621094 338.359375 180.089844 C 338.480469 182.558594 338.542969 185.027344 338.542969 187.5 Z M 338.542969 187.5 " fill-opacity="1" fill-rule="nonzero"/><path fill="#f5f8fa" d="M 322.917969 187.5 C 322.917969 189.714844 322.863281 191.929688 322.753906 194.144531 C 322.644531 196.359375 322.480469 198.566406 322.265625 200.773438 C 322.046875 202.980469 321.777344 205.175781 321.449219 207.371094 C 321.125 209.5625 320.746094 211.746094 320.316406 213.917969 C 319.882812 216.09375 319.398438 218.253906 318.859375 220.402344 C 318.320312 222.554688 317.730469 224.6875 317.085938 226.808594 C 316.441406 228.929688 315.746094 231.035156 315 233.121094 C 314.253906 235.207031 313.457031 237.273438 312.609375 239.320312 C 311.761719 241.371094 310.863281 243.394531 309.914062 245.398438 C 308.96875 247.402344 307.972656 249.378906 306.925781 251.335938 C 305.882812 253.289062 304.789062 255.21875 303.652344 257.117188 C 302.511719 259.019531 301.324219 260.890625 300.09375 262.734375 C 298.863281 264.574219 297.585938 266.386719 296.269531 268.167969 C 294.949219 269.949219 293.585938 271.695312 292.179688 273.40625 C 290.773438 275.121094 289.324219 276.796875 287.835938 278.441406 C 286.347656 280.082031 284.820312 281.6875 283.253906 283.253906 C 281.6875 284.820312 280.082031 286.347656 278.441406 287.835938 C 276.796875 289.324219 275.121094 290.773438 273.40625 292.179688 C 271.695312 293.585938 269.949219 294.949219 268.167969 296.269531 C 266.386719 297.585938 264.574219 298.863281 262.734375 300.09375 C 260.890625 301.324219 259.019531 302.511719 257.117188 303.652344 C 255.21875 304.789062 253.289062 305.882812 251.335938 306.925781 C 249.378906 307.972656 247.402344 308.96875 245.398438 309.914062 C 243.394531 310.863281 241.371094 311.761719 239.320312 312.609375 C 237.273438 313.457031 235.207031 314.253906 233.121094 315 C 231.035156 315.746094 228.929688 316.441406 226.808594 317.085938 C 224.6875 317.730469 222.554688 318.320312 220.402344 318.859375 C 218.253906 319.398438 216.09375 319.882812 213.917969 320.316406 C 211.746094 320.746094 209.5625 321.125 207.371094 321.449219 C 205.175781 321.777344 202.980469 322.046875 200.773438 322.265625 C 198.566406 322.480469 196.359375 322.644531 194.144531 322.753906 C 191.929688 322.863281 189.714844 322.917969 187.5 322.917969 C 185.285156 322.917969 183.070312 322.863281 180.855469 322.753906 C 178.640625 322.644531 176.433594 322.480469 174.226562 322.265625 C 172.019531 322.046875 169.824219 321.777344 167.628906 321.449219 C 165.4375 321.125 163.253906 320.746094 161.082031 320.316406 C 158.90625 319.882812 156.746094 319.398438 154.597656 318.859375 C 152.445312 318.320312 150.3125 317.730469 148.191406 317.085938 C 146.070312 316.441406 143.964844 315.746094 141.878906 315 C 139.792969 314.253906 137.726562 313.457031 135.679688 312.609375 C 133.628906 311.761719 131.605469 310.863281 129.601562 309.914062 C 127.597656 308.96875 125.621094 307.972656 123.664062 306.925781 C 121.710938 305.882812 119.78125 304.789062 117.882812 303.652344 C 115.980469 302.511719 114.109375 301.324219 112.265625 300.09375 C 110.421875 298.863281 108.613281 297.585938 106.832031 296.269531 C 105.050781 294.949219 103.304688 293.585938 101.59375 292.179688 C 99.878906 290.773438 98.203125 289.324219 96.558594 287.835938 C 94.917969 286.347656 93.3125 284.820312 91.746094 283.253906 C 90.179688 281.6875 88.652344 280.082031 87.164062 278.441406 C 85.675781 276.796875 84.226562 275.121094 82.820312 273.40625 C 81.414062 271.695312 80.050781 269.949219 78.730469 268.167969 C 77.414062 266.386719 76.136719 264.574219 74.90625 262.734375 C 73.675781 260.890625 72.488281 259.019531 71.347656 257.117188 C 70.210938 255.21875 69.117188 253.289062 68.074219 251.335938 C 67.027344 249.378906 66.03125 247.402344 65.085938 245.398438 C 64.136719 243.394531 63.238281 241.371094 62.390625 239.320312 C 61.542969 237.273438 60.746094 235.207031 60 233.121094 C 59.253906 231.035156 58.558594 228.929688 57.914062 226.808594 C 57.269531 224.6875 56.679688 222.554688 56.140625 220.402344 C 55.601562 218.253906 55.117188 216.09375 54.683594 213.917969 C 54.253906 211.746094 53.875 209.5625 53.550781 207.371094 C 53.222656 205.175781 52.953125 202.980469 52.734375 200.773438 C 52.519531 198.566406 52.355469 196.359375 52.246094 194.144531 C 52.136719 191.929688 52.082031 189.714844 52.082031 187.5 C 52.082031 185.285156 52.136719 183.070312 52.246094 180.855469 C 52.355469 178.640625 52.519531 176.433594 52.734375 174.226562 C 52.953125 172.019531 53.222656 169.824219 53.550781 167.628906 C 53.875 165.4375 54.253906 163.253906 54.683594 161.082031 C 55.117188 158.90625 55.601562 156.746094 56.140625 154.597656 C 56.679688 152.445312 57.269531 150.3125 57.914062 148.191406 C 58.558594 146.070312 59.253906 143.964844 60 141.878906 C 60.746094 139.792969 61.542969 137.726562 62.390625 135.679688 C 63.238281 133.628906 64.136719 131.605469 65.085938 129.601562 C 66.03125 127.597656 67.027344 125.621094 68.074219 123.664062 C 69.117188 121.710938 70.210938 119.78125 71.347656 117.882812 C 72.488281 115.980469 73.675781 114.109375 74.90625 112.265625 C 76.136719 110.421875 77.414062 108.613281 78.730469 106.832031 C 80.050781 105.050781 81.414062 103.304688 82.820312 101.59375 C 84.226562 99.878906 85.675781 98.203125 87.164062 96.558594 C 88.652344 94.917969 90.179688 93.3125 91.746094 91.746094 C 93.3125 90.179688 94.917969 88.652344 96.558594 87.164062 C 98.203125 85.675781 99.878906 84.226562 101.59375 82.820312 C 103.304688 81.414062 105.050781 80.050781 106.832031 78.730469 C 108.613281 77.414062 110.421875 76.136719 112.265625 74.90625 C 114.109375 73.675781 115.980469 72.488281 117.882812 71.347656 C 119.78125 70.210938 121.710938 69.117188 123.664062 68.074219 C 125.621094 67.027344 127.597656 66.03125 129.601562 65.085938 C 131.605469 64.136719 133.628906 63.238281 135.679688 62.390625 C 137.726562 61.542969 139.792969 60.746094 141.878906 60 C 143.964844 59.253906 146.070312 58.558594 148.191406 57.914062 C 150.3125 57.269531 152.445312 56.679688 154.597656 56.140625 C 156.746094 55.601562 158.90625 55.117188 161.082031 54.683594 C 163.253906 54.253906 165.4375 53.875 167.628906 53.550781 C 169.824219 53.222656 172.019531 52.953125 174.226562 52.734375 C 176.433594 52.519531 178.640625 52.355469 180.855469 52.246094 C 183.070312 52.136719 185.285156 52.082031 187.5 52.082031 C 189.714844 52.082031 191.929688 52.136719 194.144531 52.246094 C 196.359375 52.355469 198.566406 52.519531 200.773438 52.734375 C 202.980469 52.953125 205.175781 53.222656 207.371094 53.550781 C 209.5625 53.875 211.746094 54.253906 213.917969 54.683594 C 216.09375 55.117188 218.253906 55.601562 220.402344 56.140625 C 222.554688 56.679688 224.6875 57.269531 226.808594 57.914062 C 228.929688 58.558594 231.035156 59.253906 233.121094 60 C 235.207031 60.746094 237.273438 61.542969 239.320312 62.390625 C 241.371094 63.238281 243.394531 64.136719 245.398438 65.085938 C 247.402344 66.03125 249.378906 67.027344 251.335938 68.074219 C 253.289062 69.117188 255.21875 70.210938 257.117188 71.347656 C 259.019531 72.488281 260.890625 73.675781 262.734375 74.90625 C 264.574219 76.136719 266.386719 77.414062 268.167969 78.730469 C 269.949219 80.050781 271.695312 81.414062 273.40625 82.820312 C 275.121094 84.226562 276.796875 85.675781 278.441406 87.164062 C 280.082031 88.652344 281.6875 90.179688 283.253906 91.746094 C 284.820312 93.3125 286.347656 94.917969 287.835938 96.558594 C 289.324219 98.203125 290.773438 99.878906 292.179688 101.59375 C 293.585938 103.304688 294.949219 105.050781 296.269531 106.832031 C 297.585938 108.613281 298.863281 110.421875 300.09375 112.265625 C 301.324219 114.109375 302.511719 115.980469 303.652344 117.882812 C 304.789062 119.78125 305.882812 121.710938 306.925781 123.664062 C 307.972656 125.621094 308.96875 127.597656 309.914062 129.601562 C 310.863281 131.605469 311.761719 133.628906 312.609375 135.679688 C 313.457031 137.726562 314.253906 139.792969 315 141.878906 C 315.746094 143.964844 316.441406 146.070312 317.085938 148.191406 C 317.730469 150.3125 318.320312 152.445312 318.859375 154.597656 C 319.398438 156.746094 319.882812 158.90625 320.316406 161.082031 C 320.746094 163.253906 321.125 165.4375 321.449219 167.628906 C 321.777344 169.824219 322.046875 172.019531 322.265625 174.226562 C 322.480469 176.433594 322.644531 178.640625 322.753906 180.855469 C 322.863281 183.070312 322.917969 185.285156 322.917969 187.5 Z M 322.917969 187.5 " fill-opacity="1" fill-rule="nonzero"/><path fill="#ccd6dd" d="M 187.5 83.332031 L 203.449219 149 L 261.15625 113.84375 L 226 171.550781 L 291.667969 187.5 L 226 203.449219 L 261.15625 261.15625 L 203.449219 226 L 187.5 291.667969 L 171.550781 226 L 113.84375 261.15625 L 149 203.449219 L 83.332031 187.5 L 149 171.550781 L 113.84375 113.84375 L 171.550781 149 Z M 187.5 83.332031 " fill-opacity="1" fill-rule="nonzero"/><path fill="#292f33" d="M 180.65625 216.125 L 272.082031 272.175781 L 216.050781 180.738281 Z M 180.65625 216.125 " fill-opacity="1" fill-rule="nonzero"/><path fill="#dd2e44" d="M 194.34375 159.03125 L 102.90625 102.980469 L 158.949219 194.425781 Z M 194.34375 159.03125 " fill-opacity="1" fill-rule="nonzero"/><path fill="#8899a6" d="M 219.324219 187.582031 C 219.324219 188.625 219.273438 189.664062 219.167969 190.703125 C 219.066406 191.738281 218.914062 192.769531 218.710938 193.792969 C 218.507812 194.8125 218.253906 195.824219 217.953125 196.820312 C 217.648438 197.820312 217.300781 198.796875 216.902344 199.761719 C 216.5 200.722656 216.054688 201.664062 215.566406 202.585938 C 215.074219 203.503906 214.539062 204.398438 213.960938 205.261719 C 213.378906 206.128906 212.761719 206.964844 212.097656 207.773438 C 211.4375 208.578125 210.738281 209.347656 210.003906 210.085938 C 209.265625 210.824219 208.492188 211.523438 207.6875 212.183594 C 206.882812 212.84375 206.046875 213.464844 205.179688 214.042969 C 204.3125 214.621094 203.421875 215.15625 202.5 215.648438 C 201.582031 216.140625 200.640625 216.585938 199.679688 216.984375 C 198.714844 217.382812 197.734375 217.734375 196.738281 218.035156 C 195.742188 218.339844 194.730469 218.589844 193.707031 218.792969 C 192.6875 219 191.65625 219.152344 190.621094 219.253906 C 189.582031 219.355469 188.542969 219.40625 187.5 219.40625 C 186.457031 219.40625 185.417969 219.355469 184.378906 219.253906 C 183.34375 219.152344 182.3125 219 181.292969 218.792969 C 180.269531 218.589844 179.257812 218.339844 178.261719 218.035156 C 177.265625 217.734375 176.285156 217.382812 175.320312 216.984375 C 174.359375 216.585938 173.417969 216.140625 172.5 215.648438 C 171.578125 215.15625 170.6875 214.621094 169.820312 214.042969 C 168.953125 213.464844 168.117188 212.84375 167.3125 212.183594 C 166.507812 211.523438 165.734375 210.824219 164.996094 210.085938 C 164.261719 209.347656 163.5625 208.578125 162.902344 207.773438 C 162.238281 206.964844 161.621094 206.128906 161.039062 205.261719 C 160.460938 204.398438 159.925781 203.503906 159.433594 202.585938 C 158.945312 201.664062 158.5 200.722656 158.097656 199.761719 C 157.699219 198.796875 157.351562 197.820312 157.046875 196.820312 C 156.746094 195.824219 156.492188 194.8125 156.289062 193.792969 C 156.085938 192.769531 155.933594 191.738281 155.832031 190.703125 C 155.726562 189.664062 155.675781 188.625 155.675781 187.582031 C 155.675781 186.542969 155.726562 185.5 155.832031 184.464844 C 155.933594 183.425781 156.085938 182.398438 156.289062 181.375 C 156.492188 180.351562 156.746094 179.34375 157.046875 178.34375 C 157.351562 177.347656 157.699219 176.367188 158.097656 175.40625 C 158.5 174.441406 158.945312 173.5 159.433594 172.582031 C 159.925781 171.664062 160.460938 170.769531 161.039062 169.902344 C 161.621094 169.035156 162.238281 168.199219 162.902344 167.394531 C 163.5625 166.589844 164.261719 165.816406 164.996094 165.082031 C 165.734375 164.34375 166.507812 163.644531 167.3125 162.984375 C 168.117188 162.324219 168.953125 161.703125 169.820312 161.125 C 170.6875 160.542969 171.578125 160.007812 172.5 159.519531 C 173.417969 159.027344 174.359375 158.582031 175.320312 158.183594 C 176.285156 157.785156 177.265625 157.433594 178.261719 157.128906 C 179.257812 156.828125 180.269531 156.574219 181.292969 156.371094 C 182.3125 156.167969 183.34375 156.015625 184.378906 155.914062 C 185.417969 155.8125 186.457031 155.761719 187.5 155.761719 C 188.542969 155.761719 189.582031 155.8125 190.621094 155.914062 C 191.65625 156.015625 192.6875 156.167969 193.707031 156.371094 C 194.730469 156.574219 195.742188 156.828125 196.738281 157.128906 C 197.734375 157.433594 198.714844 157.785156 199.679688 158.183594 C 200.640625 158.582031 201.582031 159.027344 202.5 159.519531 C 203.421875 160.007812 204.3125 160.542969 205.179688 161.125 C 206.046875 161.703125 206.882812 162.324219 207.6875 162.984375 C 208.492188 163.644531 209.265625 164.34375 210.003906 165.082031 C 210.738281 165.816406 211.4375 166.589844 212.097656 167.394531 C 212.761719 168.199219 213.378906 169.035156 213.960938 169.902344 C 214.539062 170.769531 215.074219 171.664062 215.566406 172.582031 C 216.054688 173.5 216.5 174.441406 216.902344 175.40625 C 217.300781 176.367188 217.648438 177.347656 217.953125 178.34375 C 218.253906 179.34375 218.507812 180.351562 218.710938 181.375 C 218.914062 182.398438 219.066406 183.425781 219.167969 184.464844 C 219.273438 185.5 219.324219 186.542969 219.324219 187.582031 Z M 219.324219 187.582031 " fill-opacity="1" fill-rule="nonzero"/><path fill="#f5f8fa" d="M 204.667969 187.582031 C 204.667969 188.144531 204.640625 188.707031 204.585938 189.265625 C 204.527344 189.824219 204.445312 190.382812 204.335938 190.933594 C 204.226562 191.484375 204.089844 192.027344 203.925781 192.566406 C 203.765625 193.105469 203.574219 193.632812 203.359375 194.152344 C 203.144531 194.671875 202.90625 195.179688 202.640625 195.675781 C 202.375 196.171875 202.085938 196.652344 201.773438 197.121094 C 201.460938 197.589844 201.125 198.039062 200.769531 198.472656 C 200.414062 198.910156 200.035156 199.324219 199.636719 199.722656 C 199.242188 200.121094 198.824219 200.496094 198.390625 200.851562 C 197.957031 201.210938 197.503906 201.542969 197.039062 201.855469 C 196.570312 202.167969 196.089844 202.457031 195.59375 202.722656 C 195.097656 202.988281 194.589844 203.226562 194.070312 203.441406 C 193.550781 203.660156 193.019531 203.847656 192.484375 204.011719 C 191.945312 204.175781 191.402344 204.308594 190.847656 204.421875 C 190.296875 204.53125 189.742188 204.613281 189.183594 204.667969 C 188.625 204.722656 188.0625 204.75 187.5 204.75 C 186.9375 204.75 186.375 204.722656 185.816406 204.667969 C 185.257812 204.613281 184.703125 204.53125 184.152344 204.421875 C 183.597656 204.308594 183.054688 204.175781 182.515625 204.011719 C 181.980469 203.847656 181.449219 203.660156 180.929688 203.441406 C 180.410156 203.226562 179.902344 202.988281 179.40625 202.722656 C 178.910156 202.457031 178.429688 202.167969 177.960938 201.855469 C 177.496094 201.542969 177.042969 201.210938 176.609375 200.851562 C 176.175781 200.496094 175.757812 200.121094 175.359375 199.722656 C 174.964844 199.324219 174.585938 198.910156 174.230469 198.472656 C 173.875 198.039062 173.539062 197.589844 173.226562 197.121094 C 172.914062 196.652344 172.625 196.171875 172.359375 195.675781 C 172.09375 195.179688 171.855469 194.671875 171.640625 194.152344 C 171.425781 193.632812 171.234375 193.105469 171.074219 192.566406 C 170.910156 192.027344 170.773438 191.484375 170.664062 190.933594 C 170.554688 190.382812 170.472656 189.824219 170.414062 189.265625 C 170.359375 188.707031 170.332031 188.144531 170.332031 187.582031 C 170.332031 187.019531 170.359375 186.460938 170.414062 185.902344 C 170.472656 185.339844 170.554688 184.785156 170.664062 184.234375 C 170.773438 183.683594 170.910156 183.136719 171.074219 182.601562 C 171.234375 182.0625 171.425781 181.535156 171.640625 181.015625 C 171.855469 180.496094 172.09375 179.988281 172.359375 179.492188 C 172.625 178.996094 172.914062 178.511719 173.226562 178.046875 C 173.539062 177.578125 173.875 177.128906 174.230469 176.691406 C 174.585938 176.257812 174.964844 175.84375 175.359375 175.445312 C 175.757812 175.046875 176.175781 174.671875 176.609375 174.3125 C 177.042969 173.957031 177.496094 173.621094 177.960938 173.308594 C 178.429688 172.996094 178.910156 172.707031 179.40625 172.445312 C 179.902344 172.179688 180.410156 171.9375 180.929688 171.722656 C 181.449219 171.507812 181.980469 171.320312 182.515625 171.15625 C 183.054688 170.992188 183.597656 170.855469 184.152344 170.746094 C 184.703125 170.636719 185.257812 170.554688 185.816406 170.5 C 186.375 170.445312 186.9375 170.417969 187.5 170.417969 C 188.0625 170.417969 188.625 170.445312 189.183594 170.5 C 189.742188 170.554688 190.296875 170.636719 190.847656 170.746094 C 191.402344 170.855469 191.945312 170.992188 192.484375 171.15625 C 193.019531 171.320312 193.550781 171.507812 194.070312 171.722656 C 194.589844 171.9375 195.097656 172.179688 195.59375 172.445312 C 196.089844 172.707031 196.570312 172.996094 197.039062 173.308594 C 197.503906 173.621094 197.957031 173.957031 198.390625 174.3125 C 198.824219 174.671875 199.242188 175.046875 199.636719 175.445312 C 200.035156 175.84375 200.414062 176.257812 200.769531 176.691406 C 201.125 177.128906 201.460938 177.578125 201.773438 178.046875 C 202.085938 178.511719 202.375 178.996094 202.640625 179.492188 C 202.90625 179.988281 203.144531 180.496094 203.359375 181.015625 C 203.574219 181.535156 203.765625 182.0625 203.925781 182.601562 C 204.089844 183.136719 204.226562 183.683594 204.335938 184.234375 C 204.445312 184.785156 204.527344 185.339844 204.585938 185.902344 C 204.640625 186.460938 204.667969 187.019531 204.667969 187.582031 Z M 204.667969 187.582031 " fill-opacity="1" fill-rule="nonzero"/></svg>